<?xml version="1.0" standalone="no"?><!DOCTYPE svg PUBLIC "-//W3C//DTD SVG 1.1//EN" "http://www.w3.org/Graphics/SVG/1.1/DTD/svg11.dtd"><svg t="1619688481790" class="icon" viewBox="0 0 1025 1024" version="1.1" xmlns="http://www.w3.org/2000/svg" p-id="2714" xmlns:xlink="http://www.w3.org/1999/xlink" width="48.046875" height="48"><defs><style type="text/css"></style></defs><path d="M874.057143 149.970286c-100.000914-99.962514-231.032686-149.961143-362.066286-149.961143-130.998857 0-262.030629 49.998629-361.993143 149.961143-199.996343 199.9616-199.996343 524.097829 0 724.0576 99.962514 99.964343 230.996114 149.962971 361.993143 149.962971 131.0336 0 262.065371-49.998629 362.066286-149.962971C1073.982171 674.068114 1073.982171 349.931886 874.057143 149.970286zM848.199314 848.171886c-89.821257 89.786514-209.210514 139.249371-336.208457 139.249371-126.9632 0-246.352457-49.428114-336.137143-139.249371C86.034286 758.354286 36.571429 638.996114 36.571429 512c0-126.997943 49.462857-246.352457 139.282286-336.173714 89.784686-89.819429 209.175771-139.247543 336.137143-139.247543 126.997943 0 246.3872 49.462857 336.208457 139.247543C1033.517714 361.181257 1033.517714 662.818743 848.199314 848.171886z" p-id="2715" fill="#bfbfbf"></path><path d="M796.450743 279.217371 744.735086 227.505371 512.027429 460.251429 279.279543 227.505371 227.567543 279.288686 460.242286 512 227.567543 744.711314 279.279543 796.494629 511.990857 563.7504 744.700343 796.494629 796.485486 744.711314 563.739429 511.963429Z" p-id="2716" fill="#bfbfbf"></path></svg>